<?xml version="1.0" encoding="UTF-8" standalone="no"?>
<svg
   version="1.1"
   width="38.954884in"
   height="16.269974in"
   viewBox="0 0 2804.7487 1171.4404"
   id="svg13"
   xmlns="http://www.w3.org/2000/svg"
   xmlns:svg="http://www.w3.org/2000/svg">
  <defs
     id="defs13" />
  <path
     d="M -0.00425832,597.32118 V 1171.4404 H 2804.7528 V 597.32118 Z"
     style="fill:#ffffff;fill-rule:evenodd;stroke-width:0.694428"
     id="path1" />
  <g
     id="Layer1000"
     transform="translate(-47.98161,-17.348901)">
    <g
       id="Layer1001">
      <path
         d="M 531.5484,601.6665 840.2795,141.496 V 17.3489 L 491.2887,541.5254 Z"
         style="fill:#ffffff;fill-rule:evenodd"
         id="path2" />
      <path
         d="M 465.3372,496.0048 682.4183,170.4639 575.4326,209.0872 464.823,373.237 437.7485,331.855 503.4463,231.672 334.0357,291.8518 Z"
         style="fill:#ffffff;fill-rule:evenodd"
         id="path3" />
      <path
         d="m 842.173,343.4045 -1.1223,-119.144 -171.8176,253.8123 172.4264,81.3852 -2.5023,-75.6108 -69.8357,-32.5919 z"
         style="fill:#ffffff;fill-rule:evenodd"
         id="path4" />
    </g>
    <path
       d="m 1906.6028,532.6931 v 39.3293 h -18.3067 v -52.3927 h 96.3008 c 0,17.8117 -0.8665,32.2186 -2.6268,43.2204 -1.4083,9.3574 -3.71,17.6958 -6.8786,25.0152 -8.8557,20.5446 -27.1624,34.9514 -55.0023,43.2204 l -12.1323,-11.5348 c 15.5988,-4.3081 27.5148,-10.006 35.6933,-17.0935 5.7682,-4.9799 10.3178,-11.3031 13.6491,-18.9467 5.2537,-11.7199 7.8534,-28.6515 7.8534,-50.8176 z m 158.7645,52.022 -48.4211,5.6517 -2.4372,-12.9245 48.2315,-5.7209 -3.8996,-21.0543 -40.2968,4.4007 -2.221,-12.7856 40.0802,-4.4703 -4.5226,-23.9264 17.6842,-1.6214 4.6037,23.6486 40.6222,-4.6094 2.058,12.7857 -40.2968,4.4702 3.8724,20.9154 42.6263,-4.9566 2.1393,13.0632 -42.3011,5.0264 8.8015,45.7449 -17.6842,2.0384 z m 165.2641,-64.9462 10.5616,-2.6405 c 4.2248,6.3232 8.1788,14.036 11.8347,23.0692 l -10.8868,3.1963 c -3.06,-8.7321 -6.9057,-16.607 -11.5095,-23.625 z m 19.8508,-4.0303 10.3992,-2.7794 c 4.5496,6.9715 8.3681,14.3141 11.4823,22.0501 l -10.6969,3.3818 c -3.3851,-8.8249 -7.1223,-16.3758 -11.1846,-22.6525 z m -100.1197,77.2455 c 13.4867,-20.6374 24.9962,-40.14 34.5827,-58.5074 1.9499,-3.706 4.0623,-6.2076 6.3374,-7.5277 1.9224,-1.0888 4.3327,-1.6214 7.3117,-1.6214 3.4395,0 6.1475,0.6253 8.1785,1.8992 1.7875,1.0888 3.8185,3.1039 6.0933,6.0455 23.1815,29.7632 44.2508,55.728 63.2348,77.8475 l -15.5447,10.5157 c -14.3801,-17.9736 -33.4185,-42.7804 -57.0603,-74.4661 -0.6769,-1.0423 -1.76,-1.5517 -3.2496,-1.5517 -1.3541,0 -2.41,0.6021 -3.0872,1.8298 -8.7202,16.3292 -18.8487,33.9786 -30.3854,52.9254 z m 143.9782,-45.6755 14.6236,-4.4706 c 5.281,9.4967 9.7223,20.2437 13.3243,32.2186 l -15.0843,4.7483 c -3.6561,-12.8783 -7.935,-23.718 -12.8636,-32.4963 z m 31.0351,-5.675 15.1653,-3.9373 c 4.2789,8.3613 7.9892,18.7149 11.1847,31.1065 l -15.1654,4.4703 c -3.2227,-13.3645 -6.9599,-23.9264 -11.1846,-31.6395 z m -13.3243,79.2839 c 20.528,-6.3694 35.1519,-15.8661 43.8721,-28.4893 7.7179,-11.2105 12.3219,-28.4893 13.8113,-51.8136 l 18.0904,3.0574 c -1.8686,14.0593 -4.1706,25.3392 -6.9058,33.8397 -2.6541,8.4079 -6.2288,15.8199 -10.7243,22.1893 -5.6058,7.9447 -12.4302,14.5228 -20.4732,19.6645 -6.9058,4.4473 -15.9511,8.6165 -27.1355,12.5541 z m 118.3057,-67.6332 c 23.019,5.2809 43.7632,12.4611 62.2868,21.5175 l -9.1262,14.7311 c -15.0843,-8.8248 -32.7957,-15.9588 -53.1606,-21.4019 v 61.5648 h -18.1715 V 512.5422 h 18.1715 z"
       style="fill:#ffffff;fill-rule:evenodd"
       id="path7" />
  </g>
  <path
     d="m 674.00859,1107.7278 238.1515,-354.9699 v -95.7656 l -269.2073,404.3434 z"
     style="fill:#1b1918;fill-rule:evenodd"
     id="path8" />
  <path
     d="m 622.93409,1026.2216 167.4537,-251.1182 -82.5274,29.7935 -85.3229,126.6231 -20.8849,-31.9215 50.6784,-77.28 -130.6813,46.422 z"
     style="fill:#1b1918;fill-rule:evenodd"
     id="path9" />
  <path
     d="m 913.62069,908.5076 -0.8657,-91.9062 -132.538,195.7877 133.0076,62.7796 -1.9302,-58.3253 -53.8705,-25.1409 z"
     style="fill:#1b1918;fill-rule:evenodd"
     id="path10" />
  <g
     id="Layer1003"
     transform="translate(-47.98161,-17.348901)">
    <path
       d="m 1087.9197,1013.5959 h 36.3498 l 45.8702,-153.4774 45.0049,153.4774 h 35.7729 l 64.0451,-210.8875 h -37.504 l -34.0418,111.6465 c -3.1734,10.6742 -6.0585,21.9252 -10.0973,41.5426 -3.462,-17.8863 -6.6354,-30.003 -10.0973,-41.8311 l -32.5996,-111.358 h -40.6772 l -33.1766,111.358 c -3.7503,12.1167 -6.9237,23.0791 -10.3856,41.8311 -3.1734,-18.4635 -6.3468,-30.2916 -9.5202,-41.8311 l -33.465,-111.358 h -38.3694 z m 289.0352,3.7505 c 22.214,0 41.5429,-10.0973 47.6011,-24.8105 l 2.5965,21.06 h 30.8685 v -86.5474 c 0,-39.5235 -23.6563,-60.2949 -62.0255,-60.2949 -38.658,0 -64.0451,20.1946 -64.0451,51.063 h 30.003 c 0,-15.0015 11.5396,-23.6563 32.311,-23.6563 17.8866,0 29.4262,7.7894 29.4262,27.1183 v 3.1733 l -42.6969,3.1734 c -33.7532,2.5966 -52.7938,19.0406 -52.7938,45.2934 0,26.8296 18.4634,44.4277 48.755,44.4277 z m 11.5396,-26.5414 c -15.8669,0 -24.5217,-6.3467 -24.5217,-19.3288 0,-11.5399 8.3662,-18.7521 30.2916,-20.7715 l 29.7147,-2.3079 v 7.5007 c 0,21.9254 -13.8475,34.9075 -35.4846,34.9075 z m 158.0604,22.7909 v -38.3695 l 20.7711,-21.6369 37.2155,60.0064 h 40.3889 l -53.0824,-85.9706 54.2364,-56.5444 h -44.1394 l -55.3901,59.7178 V 798.9582 h -34.9075 v 214.6377 z m 155.7522,-171.0754 c 11.5395,0 21.06,-9.5202 21.06,-21.3486 0,-11.8281 -9.5205,-21.0597 -21.06,-21.0597 -12.1167,0 -21.6369,9.2316 -21.6369,21.0597 0,11.8284 9.5202,21.3486 21.6369,21.3486 z m -17.5981,171.0754 h 35.1961 v -142.515 h -35.1961 z"
       style="fill:#1b1918;fill-rule:evenodd"
       id="path11" />
    <path
       d="m 1779.878,1013.5959 h 85.3937 c 43.5623,0 68.6608,-21.06 68.6608,-57.1213 0,-24.5219 -11.251,-41.2543 -33.465,-48.4667 19.906,-8.3662 30.2916,-25.0985 30.2916,-48.4665 0,-35.1958 -25.3871,-56.833 -66.93,-56.833 h -83.9511 z m 80.7777,-178.2879 c 20.7715,0 32.311,9.8087 32.311,27.9839 0,18.7518 -11.251,29.4259 -31.4455,29.4259 h -44.7163 V 835.308 Z m 3.1734,88.5671 c 20.4829,0 32.311,10.097 32.311,27.9836 0,19.0403 -11.5395,29.1376 -32.311,29.1376 h -47.0242 v -57.1212 z m 180.851,93.4713 c 37.2155,0 63.1797,-18.752 69.2382,-49.909 h -32.5996 c -4.039,13.5589 -16.7326,21.0597 -36.0615,21.0597 -23.3679,0 -36.6383,-12.6936 -39.2349,-37.7924 l 107.3189,-0.2885 V 939.742 c 0,-44.4277 -27.1182,-72.9884 -69.8148,-72.9884 -41.8314,0 -70.969,30.8687 -70.969,75.585 0,44.1391 29.7147,75.0078 72.1227,75.0078 z m -0.8654,-121.7435 c 21.06,0 34.6189,12.9821 34.6189,32.5996 h -71.5459 c 3.462,-21.3486 16.1555,-32.5996 36.927,-32.5996 z m 163.2532,117.993 V 900.5071 h 27.695 v -29.4262 h -27.695 v -44.4276 h -35.1961 v 44.4276 h -27.4068 v 29.4262 h 27.4068 v 113.0888 z"
       style="fill:#dcb315;fill-rule:evenodd"
       id="path12" />
  </g>
  <path
     d="m 1734.7092,1054.5228 v 30.338 h -14.1219 v -40.4149 h 74.2853 c 0,13.7395 -0.6687,24.8527 -2.0265,33.3397 -1.086,7.2181 -2.8619,13.6502 -5.3059,19.2962 -6.8309,15.848 -20.9529,26.9612 -42.4278,33.3397 l -9.3589,-8.8976 c 12.0328,-3.3234 21.2244,-7.7188 27.5332,-13.186 4.4498,-3.8415 7.9591,-8.7191 10.5287,-14.6151 4.0527,-9.0406 6.0579,-22.1015 6.0579,-39.2 z m 122.4683,40.1292 -37.3513,4.3594 -1.8802,-9.9697 37.205,-4.413 -3.0078,-16.2411 -31.0845,3.3947 -1.7132,-9.8625 30.9175,-3.4484 -3.4886,-18.4566 13.6411,-1.2507 3.5513,18.2421 31.3353,-3.5555 1.5877,9.8626 -31.0845,3.4483 2.9872,16.134 32.881,-3.8237 1.6506,10.0769 -32.6307,3.8772 6.7895,35.2871 -13.6414,1.5724 z m 127.4825,-50.099 8.1471,-2.0367 c 3.259,4.8776 6.3088,10.8272 9.1293,17.7954 l -8.398,2.4655 c -2.3604,-6.7356 -5.3268,-12.8106 -8.8784,-18.2242 z m 15.3128,-3.1087 8.0215,-2.1442 c 3.5098,5.3779 6.4553,11.0418 8.8574,17.0093 l -8.2517,2.6088 c -2.611,-6.8074 -5.4941,-12.6321 -8.6272,-17.4739 z m -77.2311,59.5862 c 10.4032,-15.9197 19.2816,-30.9634 26.6769,-45.1321 1.5041,-2.8584 3.1337,-4.7883 4.8881,-5.8065 1.4833,-0.8399 3.3426,-1.2509 5.6403,-1.2509 2.6533,0 4.7421,0.4824 6.3091,1.4652 1.3788,0.8396 2.9455,2.3942 4.7001,4.6633 17.8818,22.9589 34.1345,42.9877 48.7786,60.0505 l -11.9911,8.1117 c -11.0925,-13.8646 -25.7786,-33.0001 -44.0155,-57.4421 -0.5222,-0.8039 -1.3578,-1.1971 -2.5067,-1.1971 -1.0446,0 -1.8595,0.4646 -2.3814,1.4116 -6.7266,12.5961 -14.5397,26.2106 -23.4391,40.8257 z m 111.0626,-35.2338 11.2805,-3.4483 c 4.0736,7.3255 7.4996,15.6157 10.2781,24.853 l -11.6359,3.6626 c -2.8202,-9.934 -6.1209,-18.2956 -9.9227,-25.0673 z m 23.9403,-4.3773 11.6983,-3.0373 c 3.3006,6.45 6.1625,14.4363 8.6275,23.9953 l -11.6986,3.4483 c -2.4857,-10.3093 -5.3685,-18.4566 -8.6272,-24.4063 z m -10.2782,61.1584 c 15.8349,-4.9133 27.1154,-12.2389 33.842,-21.9762 5.9539,-8.6476 9.5051,-21.9764 10.654,-39.9682 l 13.9547,2.3584 c -1.4414,10.8451 -3.2173,19.5463 -5.3271,26.1034 -2.0472,6.4857 -4.8048,12.2032 -8.2724,17.1165 -4.3242,6.1285 -9.5887,11.2025 -15.7929,15.169 -5.3272,3.4305 -12.3044,6.6467 -20.9319,9.684 z m 91.2589,-52.1714 c 17.7565,4.0737 33.7584,9.6126 48.0472,16.5986 l -7.0398,11.3632 c -11.6359,-6.8074 -25.2981,-12.3103 -41.0074,-16.509 v 47.4903 h -14.0176 v -90.3708 h 14.0176 z"
     style="fill:#1b1918;fill-rule:evenodd"
     id="path13" />
</svg>
